<?xml version="1.0" encoding="utf-8"?>
<!-- Generator: Adobe Illustrator 27.5.0, SVG Export Plug-In . SVG Version: 6.00 Build 0)  -->
<svg version="1.1" id="Layer_1" xmlns="http://www.w3.org/2000/svg" xmlns:xlink="http://www.w3.org/1999/xlink" x="0px" y="0px"
	 viewBox="0 0 68.67 128" style="enable-background:new 0 0 68.67 128;" xml:space="preserve">
<style type="text/css">
	.st0{fill:#FEBC12;}
	.st1{clip-path:url(#SVGID_00000078763579209964676970000014979527519190787770_);}
	.st2{fill:#302F3A;}
</style>
<g id="Group_7" transform="translate(-949.463 -994.417)">
	<path id="Rectangle_82" class="st0" d="M983.8,1003.06L983.8,1003.06c14.97,0,27.11,12.14,27.11,27.11v27.11
		c0,14.97-12.14,27.11-27.11,27.11l0,0c-14.97,0-27.11-12.14-27.11-27.11v-27.11C956.69,1015.2,968.83,1003.06,983.8,1003.06z"/>
	<g id="Group_6" transform="translate(949.463 994.422)">
		<g>
			<defs>
				<rect id="SVGID_1_" x="2.59" y="3.87" width="63.49" height="120.25"/>
			</defs>
			<clipPath id="SVGID_00000119119338780141981720000016642784121152106381_">
				<use xlink:href="#SVGID_1_"  style="overflow:visible;"/>
			</clipPath>
			
				<g id="Group_5" transform="translate(0 -0.005)" style="clip-path:url(#SVGID_00000119119338780141981720000016642784121152106381_);">
				<path id="Path_32" class="st2" d="M63.59,23.26C56.77,7.11,38.15-0.46,22,6.36C10.23,11.32,2.59,22.85,2.59,35.62v28.83
					c-0.01,17.52,14.18,31.73,31.7,31.75c0.02,0,0.03,0,0.05,0l0,0c17.52,0.01,31.73-14.18,31.74-31.7c0-0.02,0-0.03,0-0.05V35.62
					C66.09,31.38,65.24,27.18,63.59,23.26 M59.21,64.45C59.19,78.18,48.06,89.3,34.34,89.32l0,0C20.61,89.3,9.48,78.18,9.47,64.45
					V35.62c0-13.74,11.14-24.87,24.88-24.86c13.73,0,24.86,11.13,24.86,24.86L59.21,64.45z"/>
				<path id="Path_33" class="st2" d="M34.34,20.03c-1.9,0-3.44,1.54-3.44,3.44V37.1c0,1.9,1.54,3.44,3.44,3.44
					c1.9,0,3.44-1.54,3.44-3.44l0,0V23.47C37.78,21.57,36.24,20.03,34.34,20.03"/>
				<path id="Path_34" class="st2" d="M44.94,105.23l-10.6,10.6l-10.6-10.6c-1.33-1.36-3.5-1.38-4.86-0.05
					c-1.36,1.33-1.38,3.5-0.05,4.86c0.02,0.02,0.04,0.04,0.06,0.06l13.03,13.03c1.34,1.34,3.52,1.34,4.86,0l13.03-13.03
					c1.36-1.33,1.38-3.5,0.06-4.86c-1.33-1.36-3.5-1.38-4.86-0.06C44.97,105.19,44.96,105.21,44.94,105.23"/>
			</g>
		</g>
	</g>
</g>
</svg>
