<?xml version="1.0" encoding="utf-8"?>
<!-- Generator: Adobe Illustrator 27.5.0, SVG Export Plug-In . SVG Version: 6.00 Build 0)  -->
<svg version="1.1" id="Layer_1" xmlns="http://www.w3.org/2000/svg" xmlns:xlink="http://www.w3.org/1999/xlink" x="0px" y="0px"
	 viewBox="0 0 256 256" style="enable-background:new 0 0 256 256;" xml:space="preserve">
<style type="text/css">
	.st0{fill:#231F20;}
	.st1{fill:#FCBA16;}
</style>
<g id="Group_18">
	<path id="Path_38" class="st0" d="M248.78,121.59h-14.34v121.6c-0.01,3.83-3.11,6.93-6.94,6.94h-57.06c-2.01,0-3.63-1.63-3.63-3.63
		v-67.84c0-2.01-1.63-3.63-3.63-3.63H92.8c-2.01,0-3.63,1.63-3.63,3.63v67.85c0,2-1.62,3.63-3.62,3.63H28.49
		c-3.83-0.01-6.93-3.11-6.94-6.94V121.59H7.21c-2.85,0.01-5.17-2.3-5.18-5.16c0-1.5,0.64-2.92,1.77-3.91L124.59,7.12
		c1.95-1.7,4.85-1.7,6.8,0l120.79,105.4c2.15,1.87,2.38,5.14,0.5,7.29C251.69,120.95,250.27,121.6,248.78,121.59"/>
</g>
</svg>
