<?xml version="1.0" encoding="utf-8"?>
<!-- Generator: Adobe Illustrator 27.5.0, SVG Export Plug-In . SVG Version: 6.00 Build 0)  -->
<svg version="1.1" id="Layer_1" xmlns="http://www.w3.org/2000/svg" xmlns:xlink="http://www.w3.org/1999/xlink" x="0px" y="0px"
	 viewBox="0 0 378.61 432.13" style="enable-background:new 0 0 378.61 432.13;" xml:space="preserve">
<style type="text/css">
	.st0{fill:#231F20;}
	.st1{fill:#181818;}
	.st2{fill:#FDBB11;}
	.st3{fill:#FFFFFF;}
	
		.st4{clip-path:url(#SVGID_00000115512306604314599600000017005158183493401010_);fill:none;stroke:#FDBB11;stroke-width:5;stroke-miterlimit:10;}
	
		.st5{clip-path:url(#SVGID_00000115512306604314599600000017005158183493401010_);fill:none;stroke:#FFFFFF;stroke-width:5;stroke-miterlimit:10;}
	.st6{clip-path:url(#SVGID_00000089562862029106624080000005903474216790909617_);}
</style>
<g>
	<defs>
		<rect id="SVGID_00000071518563192382573300000000316145104705824920_" x="0" y="0.01" width="378.61" height="432.5"/>
	</defs>
	<clipPath id="SVGID_00000168831903156106964450000015829603693265315256_">
		<use xlink:href="#SVGID_00000071518563192382573300000000316145104705824920_"  style="overflow:visible;"/>
	</clipPath>
	<g style="clip-path:url(#SVGID_00000168831903156106964450000015829603693265315256_);">
		<g>
			<rect x="0" y="0.01" class="st2" width="367.76" height="432.5"/>
		</g>
		<g>
			<g>
				<path class="st0" d="M45.56-4.08v2.02C31.4-2.05,34,1.7,41.8,26.85l24.28,79.19l26.01-84.97C85.73,0.26,84.29-2.05,72.44-2.05
					v-2.02h50.29v2.02c-14.16,0-11.56,3.76-3.76,28.9l24.28,79.48C176.78-2.63,175.62-2.05,149.9-2.05v-2.02h50.29v2.02
					c-23.41,0-21.1-1.16-67.34,149.71h-2.31L93.25,24.25L55.68,147.66h-2.31L16.66,26.27C8.85,0.55,7.99-2.05-4.73-2.05v-2.02H45.56
					z"/>
				<path class="st0" d="M212.61-6.97c32.08,0,48.27,20.81,48.27,44.22c0,31.79-48.27,39.02-85.26,39.89
					c1.16,27.17,7.52,64.16,37,64.16c32.66,0,46.24-37.28,46.24-66.19h2.02c0,30.35-13.58,68.21-48.27,68.21
					c-40.17,0.29-63.3-27.46-63.3-78.04C149.32,19.91,174.17-6.97,212.61-6.97z M175.33,65.29c0,2.89,0,6.36,0.29,9.83
					c45.67-0.87,63.01-9.25,63.01-47.69c0-24.28-6.65-32.37-26.01-32.37C181.11-4.94,175.33,37.83,175.33,65.29z"/>
			</g>
			<g>
				<path class="st0" d="M179.44,348.93c8.65,9.2,12.14,20.07,10.47,32.62c-1.08,6-3.27,11.5-6.57,16.47s-7.3,9.36-12.01,13.15
					c-9.85,7.68-20.8,13.15-32.87,16.39c-12.07,3.25-24.24,4.92-36.52,5.03c-12.71,0.38-25.36,0.01-37.94-1.1
					c-12.58-1.11-24.87-3.96-36.88-8.56c-6.87-2.71-13.4-6.56-19.6-11.56c-6.19-5-10.91-10.9-14.16-17.69
					c-3.25-6.79-3.92-14.24-2.03-22.36c2.32-8.06,6.46-14.82,12.42-20.29c5.95-5.47,12.73-10.04,20.33-13.72
					c7.6-3.68,15-6.84,22.19-9.49c-5.79-2.16-11.24-5.22-16.35-9.17c-5.11-3.95-8.78-8.9-11-14.85c-2.11-6.82-1.74-13.39,1.1-19.72
					s7.61-10.79,14.32-13.39c-12.71-10.71-20.88-24.18-24.51-40.41c-2.92-14.71-1.61-28.82,3.94-42.32
					c5.55-13.5,14.51-24.47,26.9-32.91c12.93-8.33,26.93-12.25,42-11.77c15.06,0.49,28.82,5.27,41.26,14.36
					c6.87-10.6,15.48-18.77,25.84-24.51c10.36-5.73,21.95-7.9,34.77-6.49c-0.11,0.65-0.19,1.38-0.24,2.19
					c0,2.38-0.46,4.52-1.38,6.41c-1.13,1.73-2.68,2.61-4.63,2.64c-1.95,0.03-3.95-0.2-6-0.69c-1.19-0.27-2.27-0.46-3.25-0.57
					c-6.65-0.65-12.88-0.04-18.66,1.83c-5.79,1.87-10.96,5.26-15.5,10.18c-3.14,3.46-5.95,7.14-8.44,11.04
					c12.93,10.98,21.15,24.78,24.67,41.39c2.7,14.44,1.33,28.29-4.14,41.55c-5.47,13.26-14.26,24.08-26.38,32.46
					c-12.88,8.44-26.83,12.48-41.87,12.13c-15.04-0.35-28.81-5.02-41.3-14c-4.06,0.97-7.55,3-10.47,6.09
					c-1.41,1.52-2.6,3.22-3.57,5.11c-0.97,1.95-1.39,3.87-1.26,5.76c0.13,1.89,0.64,3.84,1.5,5.84c2.54,5.9,6.5,10.74,11.89,14.53
					c5.38,3.79,11.02,6.74,16.92,8.84c7.25,2.65,14.67,4.52,22.28,5.6c7.6,1.08,15.24,1.84,22.93,2.27c2.92,0.16,5.9,0.32,8.92,0.49
					c8.49,0.33,17.16,0.99,26.01,1.99c8.85,1,17.31,2.95,25.4,5.84C166.06,338.48,173.22,342.93,179.44,348.93z M65.83,428.62
					c10.01,1.19,20.07,1.41,30.19,0.65c10.11-0.76,19.91-3.03,29.38-6.82c6.93-2.76,13.35-6.57,19.27-11.44
					c5.92-4.87,10.43-10.79,13.51-17.77c3.03-7.19,3.85-14.53,2.47-21.99c-1.38-7.47-4.91-13.91-10.59-19.31
					c-5.84-5.09-12.51-8.78-20-11.08c-7.5-2.3-15.05-3.8-22.68-4.5c-5.74-0.6-11.5-1.03-17.29-1.3c-6.6-0.32-13.17-0.85-19.72-1.58
					c-6.55-0.73-12.98-2.07-19.31-4.02c-1.46,0.54-2.92,1.11-4.38,1.7c-4.87,1.79-9.71,3.74-14.53,5.88
					c-4.82,2.14-9.39,4.67-13.72,7.59c-4.28,2.92-8.09,6.55-11.44,10.87c-3.35,4.33-5.71,9.01-7.06,14.04
					c-1.19,4.92-1.19,9.78,0,14.57c1.19,4.79,3.22,9.24,6.09,13.35c4.49,6.27,9.93,11.45,16.31,15.54
					c6.38,4.08,13.25,7.34,20.61,9.78c7.36,2.44,14.69,4.33,21.99,5.68v0.08C65.26,428.54,65.56,428.57,65.83,428.62z M80.11,146.38
					c-5.41,0-10.26,1.19-14.57,3.57c-4.3,2.38-8.09,5.55-11.36,9.49s-6.06,8.33-8.36,13.15c-2.3,4.82-4.14,9.74-5.52,14.77
					c-1.38,5.03-2.37,9.77-2.96,14.2c-1.08,8.33-1.17,16.96-0.28,25.89c0.89,8.93,3.01,17.48,6.37,25.64
					c3.35,8.17,8.14,15.29,14.36,21.34c3.41,3.25,7.26,5.75,11.57,7.51c4.3,1.76,8.8,2.42,13.51,1.99c5.09-0.54,9.7-2.2,13.83-4.99
					c4.14-2.79,7.75-6.15,10.83-10.1c8.11-10.87,13.16-23.25,15.13-37.13c1.97-13.88,1.42-27.31-1.66-40.29
					c-1.46-6.71-3.93-13.48-7.43-20.33c-3.49-6.84-8.01-12.63-13.55-17.37C94.49,148.99,87.85,146.54,80.11,146.38z"/>
				<path class="st0" d="M231.3,287.75c-9.63,0-18.81-1.81-27.55-5.44c-8.74-3.62-16.54-8.86-23.41-15.7
					c-6.87-6.84-12.12-14.65-15.74-23.41s-5.44-17.96-5.44-27.59c0-9.63,1.81-18.81,5.44-27.55c3.62-8.74,8.87-16.54,15.74-23.41
					c6.87-6.87,14.67-12.1,23.41-15.7c8.74-3.6,17.92-5.4,27.55-5.4c14.39,0,27.67,4,39.85,12.01c5.73,3.79,10.79,8.28,15.17,13.47
					c11.41,13.85,17.12,29.38,17.12,46.58c0,9.63-1.81,18.83-5.44,27.59s-8.87,16.57-15.74,23.41c-6.87,6.84-14.67,12.08-23.41,15.7
					C250.12,285.93,240.93,287.75,231.3,287.75z M231.14,284.5c8.06-0.16,15.37-3.31,21.91-9.45c6.54-6.14,11.78-14.42,15.7-24.83
					c3.92-10.41,5.88-21.95,5.88-34.61s-1.96-24.2-5.88-34.61c-3.92-10.41-9.16-18.68-15.7-24.79c-6.55-6.11-13.88-9.25-21.99-9.41
					c-8.12,0-15.56,3.22-22.32,9.66c-6.49,6.17-11.67,14.43-15.54,24.79c-3.87,10.36-5.8,21.82-5.8,34.37
					c0,12.61,1.93,24.09,5.8,34.45c3.87,10.36,9.05,18.62,15.54,24.79c6.76,6.44,14.17,9.66,22.24,9.66H231.14z"/>
				<path class="st0" d="M328.7,289.69c-1.46,0-3.16-0.18-5.11-0.53c-1.95-0.35-3.84-1.37-5.68-3.04c-1.57-1.51-2.53-3.18-2.88-4.99
					c-0.35-1.81-0.53-3.75-0.53-5.8V146.22h-85.41v-2.7l85.41-0.54v-5.76c0.11-9.85,0.16-22.88,0.16-39.11
					c0-6.22-0.05-9.9-0.16-11.04c-0.49-2.81-2-4.73-4.54-5.76c-2.33-0.92-4.65-1.38-6.98-1.38h-0.73v-3.25h37.33v66.3h36.76v3.25
					h-36.76v128.54c0,0.87,0.08,1.73,0.24,2.6c0.43,1.73,1.81,2.6,4.14,2.6c2.7,0,6.22-1.87,10.55-5.6l2.19,2.35
					c-3.36,3.3-7.22,6.11-11.61,8.44C339.42,288.18,333.95,289.69,328.7,289.69z"/>
			</g>
			<path class="st0" d="M286.31,303.1c2.15-6.01,4.39-12.25,6.7-18.72c1.69-4.47,3.77-8.24,6.24-11.32c2.46-3.08,4.2-4.89,5.2-5.43
				c1-0.54,1.81-0.88,2.43-1.04h-27.5c-1.85,0-3.5,0.54-4.97,1.62c-1.47,1.08-2.43,2.47-2.89,4.16c-3.08,9.4-6.47,19.64-10.17,30.74
				H233.4c0.61-1.39,1.31-2.69,2.08-3.93c4.93-8.47,9.24-13.09,12.94-13.87l-14.56-0.23h-0.23l-12.71-0.46
				c-3.85,0-6.47,1.93-7.86,5.78c-0.77,1.7-1.73,4.04-2.89,7.05c-1.16,3-2.27,5.93-3.35,8.78c-1.08,2.85-2.16,5.66-3.24,8.43h4.62
				h19.65h29.81c-3.95,12.38-7.52,23.64-10.76,33.9l-31.98,43.5l0,0c-6.13,7.93-13.83,17.41-23.12,28.44c0.31-2.62,0.69-5,1.15-7.16
				c0-0.31,0-0.54,0-0.69c0.61-4,2-9.39,4.16-16.18l0.23-0.92c1.69-5.08,3.73-10.94,6.12-17.56c2.39-6.62,5.74-15.52,10.05-26.69
				c4.31-11.17,7.55-19.6,9.71-25.3h-18.49c-1.7,0-3.27,0.5-4.74,1.5c-1.47,1-2.51,2.35-3.12,4.05c-1.24,3.39-3,8.24-5.31,14.56
				c-12.33,32.81-19.33,54.23-21.03,64.24c-2.46,14.18,0.85,21.88,9.94,23.11c4.31,0.61,8.09,0.54,11.32-0.23l34.79-44.35
				l12.77-16.25c-7.21,23.18-11.76,38.42-13.6,45.59c-3.23,12.33-3.39,21.07-0.46,26.23c2.93,5.16,9.63,7.05,20.1,5.66
				c-2.16-11.09,10.17-56.23,36.97-135.42h46.45l3.7-11.55H286.31z"/>
			<path class="st0" d="M167.74,136.47c0,0,4.49,0.64,6.05,1.01s23.02,5.78,36.04,5.78c0,0,5.87-0.73-15.59-3.03
				c0,0-9.35-1.93-11.01-6.24c-1.65-4.31-14.77,0.92-14.77,0.92L167.74,136.47z"/>
		</g>
	</g>
</g>
</svg>
