<?xml version="1.0" encoding="utf-8"?>
<!-- Generator: Adobe Illustrator 27.5.0, SVG Export Plug-In . SVG Version: 6.00 Build 0)  -->
<svg version="1.1" id="Layer_1" xmlns="http://www.w3.org/2000/svg" xmlns:xlink="http://www.w3.org/1999/xlink" x="0px" y="0px"
	 viewBox="0 0 512 512" style="enable-background:new 0 0 512 512;" xml:space="preserve">
<style type="text/css">
	.st0{fill:#221F1F;}
	.st1{fill-rule:evenodd;clip-rule:evenodd;fill:#221F1F;}
</style>
<g>
	<g>
		<path class="st0" d="M57.13,328.13c-0.09-0.07-0.19-0.15-0.3-0.25c-1.74-2.16-12.49-15.62-23.44-32.89
			c-3.29-5.51-5.42-9.8-5.01-10.91c1.07-2.89,20.17-4.47,26.05-1.85c1.79,0.79,1.74,1.84,1.74,2.46c0,2.64-0.13,9.73-0.13,9.73
			c0,1.47,1.19,2.65,2.66,2.65c1.47,0,2.65-1.19,2.65-2.66l-0.03-17.66h-0.01c0-1.53-1.67-1.92-1.99-1.98
			c-3.07-0.01-9.3-0.03-15.99-0.03c-14.77,0-18.07,0.61-20.58-1.03c-5.44-3.55-14.32-27.51-14.53-40.99
			c-0.3-19.01,10.97-35.47,26.84-43.63c6.63-3.34,14.11-5.22,22.02-5.22c25.11,0,45.79,18.95,48.54,43.34c0,0.02,0,0.04,0.01,0.06
			c0.5,5.89-31.98,7.15-38.41,5.43c-0.99-0.26-1.24-1.27-1.24-1.71c-0.01-4.48-0.04-17.1-0.04-17.1c0-1.47-1.2-2.66-2.66-2.65h0
			c-1.46,0-2.65,1.19-2.65,2.66l0.05,23.24c0.04,1.46,1.27,1.86,1.61,1.93c3.65,0,12.2-0.01,20.16-0.01
			c10.76,0,15.28,1.25,18.28,3.53c2,1.53,2.77,4.44,2.1,8.24C96.79,284.58,58.56,326.39,57.13,328.13z"/>
		<g>
			<path class="st0" d="M160.8,249.37c9.64,4.13,15.62,8.72,15.62,18.79c0,10.28-7.79,16.93-19.84,16.93
				c-9.77,0-17.61-4.43-21.51-12.14l-0.63-1.25l11.48-6.65l0.75,1.23c2.59,4.23,5.48,6.03,9.67,6.03c3.61,0,6.04-1.6,6.04-3.99
				c0-2.64-1.76-3.63-7.19-6.01l-2.76-1.18c-7.37-3.14-14.2-7.51-14.2-18.08c0-9.5,7.28-16.13,17.71-16.13
				c7.9,0,13.31,3.06,17.04,9.62l0.69,1.22l-11.13,7.15l-0.77-1.37c-1.86-3.33-3.61-4-5.84-4c-2.33,0-3.83,1.28-3.83,3.28
				c0,2.29,1.1,3.29,5.92,5.38L160.8,249.37z"/>
			<path class="st0" d="M242.08,251.32l8.11-22.6h13.91l-20.62,57.3h-3.09l-12.51-26.84c-0.58-1.23-1.18-2.76-1.7-4.15
				c-0.53,1.4-1.14,2.93-1.73,4.16l-13,26.83h-3.07l-20.95-57.3h14.86l8.2,22.6c0.52,1.44,1.06,3.2,1.53,4.83
				c0.56-1.68,1.23-3.5,1.93-4.97l10.76-22.94h2.98l10.93,22.94c0.7,1.47,1.37,3.28,1.92,4.97
				C241.02,254.52,241.56,252.76,242.08,251.32z"/>
			<rect x="280.33" y="227.55" class="st0" width="14.04" height="56.83"/>
			<path class="st0" d="M340.41,265.28v-12.7h26.08v25.47l-0.54,0.45c-2.98,2.45-10.89,6.59-21.6,6.59
				c-18.07,0-30.69-11.98-30.69-29.13c0-16.83,12.17-29.05,28.95-29.05c9.23,0,15.99,2.6,20.67,7.95l0.92,1.05l-9.57,9.48
				l-1.04-1.07c-2.68-2.76-5.45-4.46-10.97-4.46c-8.59,0-14.6,6.62-14.6,16.11c0,9.88,6.41,16.27,16.34,16.27
				c3.29,0,6.72-0.57,9.05-1.47v-5.47H340.41z"/>
			<path class="st0" d="M411.58,265.28v-12.7h26.08v25.47l-0.54,0.45c-2.98,2.45-10.89,6.59-21.6,6.59
				c-18.07,0-30.69-11.98-30.69-29.13c0-16.83,12.18-29.05,28.95-29.05c9.23,0,15.99,2.6,20.67,7.95l0.92,1.05l-9.57,9.48
				l-1.04-1.07c-2.67-2.76-5.44-4.46-10.97-4.46c-8.59,0-14.59,6.62-14.59,16.11c0,9.88,6.41,16.27,16.34,16.27
				c3.29,0,6.72-0.57,9.05-1.47v-5.47H411.58z"/>
			<path class="st0" d="M489.11,227.55h14.68l-20.15,37.82v19.01h-14.12v-18.2l-21.46-38.62h15.66l9.92,18.12
				c1.07,1.97,2.18,4.58,3.02,6.69c0.81-2.1,1.87-4.68,2.93-6.67L489.11,227.55z"/>
		</g>
	</g>
</g>
</svg>
