<?xml version="1.0" encoding="utf-8"?>
<!-- Generator: Adobe Illustrator 27.5.0, SVG Export Plug-In . SVG Version: 6.00 Build 0)  -->
<svg version="1.1" id="Layer_1" xmlns="http://www.w3.org/2000/svg" xmlns:xlink="http://www.w3.org/1999/xlink" x="0px" y="0px"
	 viewBox="0 0 512 512" style="enable-background:new 0 0 512 512;" xml:space="preserve">
<style type="text/css">
	.st0{fill:#221F1F;}
	.st1{fill-rule:evenodd;clip-rule:evenodd;fill:#221F1F;}
</style>
<g>
	<g>
		<g>
			<path class="st0" d="M224.95,300.19c8.85-1.95,10.07-7.76,10.01-15.44c-0.27-34.33-0.11-68.66-0.12-102.99
				c0-11.09-0.64-11.93-11.82-14.83c2.24-0.58,3.51-1.18,4.78-1.19c13.03-0.17,26.06-0.56,39.09-0.3
				c27.2,0.54,46.59,15.94,53.07,42.39c4.25,17.37,3.72,34.8-2.06,51.84c-8.5,25.03-27.46,39.42-53.88,40.44
				C251.01,300.6,237.97,300.19,224.95,300.19z M254.43,297.49c19.25,1.39,30.21-5.1,38.01-21.58c6.37-13.44,8.54-27.73,8.27-42.33
				c-0.31-16.85-2.29-33.52-11.45-48.32c-8.21-13.25-20.95-19.14-34.83-16.26C254.43,211.66,254.43,254.35,254.43,297.49z"/>
			<path class="st0" d="M137.23,184.82c-0.08,1.61-0.22,3.22-0.22,4.84c0.05,28.59,0.1,57.19,0.21,85.78
				c0.01,2.75,0.42,5.49,0.63,8.24c0.6,7.91,3.72,13.9,12.09,16.34c-9.26,0-18.51,0-30.35,0c12.38-3.97,14.12-12.53,14.19-21.38
				c0.25-30.85,0.14-61.7,0.09-92.55c-0.02-9.88-5.43-15.77-14.52-19.73c10.05,0,20.12-0.29,30.15,0.28
				c1.69,0.1,3.56,3.74,4.68,6.06c14.76,30.42,29.39,60.9,44.07,91.36c1.13,2.35,2.41,4.64,4.6,8.83c0.25-4.01,0.47-5.87,0.47-7.74
				c0.02-25.83,0.09-51.67-0.03-77.5c-0.06-11.88-3.72-17.08-15.81-21.16c11.72,0,21.34,0,30.97,0
				c-8.56,2.26-10.87,8.85-11.48,16.37c-0.49,5.98-0.59,12.01-0.6,18.02c-0.06,30.35-0.03,60.7-0.03,91.05c0,2.71,0,5.42,0,8.07
				c-7.1,2.28-10.94,0.81-14.13-5.89c-16.46-34.6-33.47-68.94-50.31-103.36c-1.04-2.13-2.22-4.19-3.33-6.28
				C138.11,184.58,137.67,184.7,137.23,184.82z"/>
			<path class="st0" d="M417.02,166.29c14.08,0,28.16,0,42.43,0c-3.99,2.38-9.19,3.76-11.02,7.03c-2.1,3.74-1.53,9.16-1.54,13.85
				c-0.1,34.09-0.05,68.18-0.05,102.27c0,2.73,0,5.46,0,9.36c7.15,0.13,14.69-1.39,19.07-1.9c12.32-1.44,14.69-4.23,16.33-5.27
				c1.1-0.7,3.84-2.35,6.85-6.32c2.28-3,6.55-14.3,6.65-16.17c0.72,0.46,1.45,0.92,2.17,1.37c-3.61,14.55-3.54,14.88-7.17,29.49
				c-24.79,0-48.94,0-73.09,0c9.39-2.64,10.05-9.56,9.99-17.69c-0.27-33.34-0.3-66.68,0.02-100.01
				C427.72,174.1,426.2,168.13,417.02,166.29z"/>
			<path class="st0" d="M372.06,300.22h39.95c-8.73-1.82-10.05-8.98-11.74-15.53c-9.59-37.32-18.99-74.68-28.63-111.98
				c-0.6-2.3-2.41-5.81-4.03-6.04c-3.39-0.47-6.85-0.47-10.25-0.4l-17.35-0.02c0,0,6.39,2.12,10.66,7.74
				c0.03,0.05,0.06,0.08,0.09,0.13c0.56,0.75,1.09,1.56,1.55,2.44c0.01,0.01,0.01,0.02,0.02,0.03c0.42,0.77,0.76,1.54,1,2.29
				c0.07,0.18,0.13,0.37,0.19,0.56l-0.96-5.34c0.4,1.92,0.77,3.78,1.04,5.58c0.22,0.7,0.4,1.43,0.53,2.2
				c-0.1,0.17-0.18,0.25-0.25,0.21c0.15,2.04,0.08,3.98-0.38,5.83c-7.75,30.8-16.59,61.33-25.21,91.91
				c-2.31,8.21-4.43,16.78-16.04,20.68h31.26c-13.05-5.86-14.48-8.85-11.32-22.79c0.94-4.15,1.99-8.27,3.18-12.35
				c2.09-7.15,2.25-17.01,7.06-20.61c4.89-3.66,14.43-0.88,21.9-1.39c4.41-0.29,6.18,1.46,7.12,5.55c2.29,10,5.07,19.88,7.37,29.88
				c1.06,4.59,2.92,9.77,1.69,13.86C379.48,296.04,374.45,298.22,372.06,300.22z M341.99,240.17c4.5-16.43,8.97-32.78,13.45-49.13
				c0.54-0.09,1.08-0.17,1.62-0.26c4.03,16.16,8.07,32.33,12.33,49.39H341.99z"/>
			<path class="st0" d="M73.94,300.22h39.95c-8.73-1.82-10.05-8.98-11.74-15.53c-9.59-37.32-18.99-74.68-28.63-111.98
				c-0.6-2.3-2.41-5.81-4.03-6.04c-3.39-0.47-6.85-0.47-10.25-0.4l-17.35-0.02c0,0,6.39,2.12,10.66,7.74
				c0.03,0.05,0.06,0.08,0.09,0.13c0.56,0.75,1.09,1.56,1.55,2.44c0.01,0.01,0.01,0.02,0.02,0.03c0.42,0.77,0.76,1.54,1,2.29
				c0.07,0.18,0.13,0.37,0.19,0.56l-0.96-5.34c0.4,1.92,0.77,3.78,1.04,5.58c0.22,0.7,0.4,1.43,0.53,2.2
				c-0.1,0.17-0.18,0.25-0.25,0.21c0.15,2.04,0.08,3.98-0.38,5.83c-7.75,30.8-16.59,61.33-25.21,91.91
				c-2.31,8.21-4.43,16.78-16.04,20.68h31.26c-13.05-5.86-14.48-8.85-11.32-22.79c0.94-4.15,1.99-8.27,3.18-12.35
				c2.09-7.15,2.25-17.01,7.06-20.61c4.89-3.66,14.43-0.88,21.9-1.39c4.41-0.29,6.18,1.46,7.12,5.55c2.29,10,5.07,19.88,7.37,29.88
				c1.06,4.59,2.92,9.77,1.69,13.86C81.36,296.04,76.33,298.22,73.94,300.22z M43.87,240.17c4.5-16.43,8.97-32.78,13.45-49.13
				c0.54-0.09,1.08-0.17,1.62-0.26c4.03,16.16,8.07,32.33,12.33,49.39H43.87z"/>
		</g>
		<g>
			<g>
				<path class="st0" d="M128.5,331.5c0-9.46,4.55-14.45,10.8-14.45c2.59,0,5.77,0.94,6.63,1.49c0.43,0.27,0.55,0.59,0.55,1.14v5.18
					c0,0.28-0.2,0.47-0.47,0.47h-0.27c-0.27,0-0.47-0.12-0.55-0.39c-1.37-4.87-3.61-6.4-6.12-6.4c-3.49,0-6.2,3.61-6.2,11.62
					c0,9.34,3.46,15,7.26,15c1.81,0,3.53-1.26,3.53-3.65v-7.77c0-0.98-0.9-1.73-2.16-1.96c-0.31-0.08-0.47-0.2-0.47-0.55v-0.2
					c0-0.39,0.12-0.47,0.35-0.47c1.61,0,2.79,0.2,4.2,0.2s2.67-0.2,4.28-0.2c0.24,0,0.35,0.08,0.35,0.47v0.2
					c0,0.35-0.12,0.47-0.31,0.51c-1.33,0.2-2.32,0.98-2.32,2c-0.04,3.26-0.35,8.05,0.86,8.87c0.51,0.35,0.75,0.39,0.75,0.67v0.24
					c0,0.27-0.16,0.47-0.47,0.47c-4.55,0.24-4.63,2.67-9.15,2.67C133.65,346.65,128.5,341.31,128.5,331.5z"/>
				<path class="st0" d="M150.61,345.59v-0.2c0-0.35,0.16-0.47,0.47-0.55c1.26-0.24,2.16-0.98,2.16-1.96v-22.22
					c0-0.98-0.9-1.73-2.16-1.96c-0.31-0.08-0.47-0.2-0.47-0.55v-0.2c0-0.39,0.12-0.47,0.35-0.47c1.33,0,4.04,0.12,8.32,0.12
					c2.83,0,4.59-0.08,8.09-0.12c1.45,0,1.69,0.27,1.69,1.26v5.34c0,0.2-0.16,0.35-0.35,0.35h-0.31c-0.2,0-0.39-0.16-0.43-0.47
					c-0.71-3.93-2.59-4.99-7.42-4.99h-1.26c-1.14,0-2.12,0.67-2.12,1.69v9.97h4.44c1.81,0,3.14-0.98,3.34-3.26
					c0.04-0.24,0.16-0.35,0.51-0.35h0.2c0.39,0,0.47,0.12,0.47,0.35c0,1.45-0.12,2.47-0.12,3.97c0,1.57,0.12,2.43,0.12,4.04
					c0,0.24-0.08,0.35-0.47,0.35h-0.2c-0.35,0-0.47-0.16-0.51-0.51c-0.27-2.2-1.57-3.1-3.34-3.1h-4.44v10.76
					c0,1.02,0.98,1.69,2.12,1.69h1.73c4.83,0,6.71-1.06,7.42-4.99c0.04-0.31,0.24-0.47,0.43-0.47h0.31c0.2,0,0.35,0.16,0.35,0.35
					v5.34c0,0.98-0.24,1.26-1.69,1.26c-3.49-0.04-5.26-0.12-8.56-0.12c-4.28,0-6.99,0.12-8.32,0.12
					C150.72,346.06,150.61,345.98,150.61,345.59z"/>
				<path class="st0" d="M170.12,345.59v-0.2c0-0.35,0.12-0.47,0.31-0.51c1.14-0.2,2.2-0.98,2.24-2l0.82-22.22
					c0.04-1.02-1.14-1.81-2.28-2c-0.2-0.04-0.31-0.16-0.31-0.51v-0.2c0-0.39,0.12-0.47,0.35-0.47h6.2l5.81,19.47l6.16-19.47h5.97
					c0.24,0,0.35,0.08,0.35,0.47v0.2c0,0.35-0.12,0.47-0.31,0.51c-1.14,0.2-2.32,0.98-2.28,2l0.59,22.22c0.04,1.02,1.1,1.81,2.24,2
					c0.2,0.04,0.31,0.16,0.31,0.51v0.2c0,0.39-0.12,0.47-0.35,0.47c-1.41,0-2.67-0.2-4.08-0.2c-1.41,0-2.59,0.2-4.4,0.2
					c-0.24,0-0.35-0.08-0.35-0.47v-0.2c0-0.35,0.16-0.47,0.47-0.51c1.45-0.28,2.28-1.02,2.24-2l-0.51-19.83l-6.52,20.65
					c-0.08,0.24-0.24,0.39-0.51,0.39h-0.55c-0.27,0-0.43-0.16-0.51-0.39l-6.32-20.45l-0.67,19.63c-0.04,0.98,0.78,1.73,2.63,2
					c0.31,0.04,0.47,0.16,0.47,0.51v0.2c0,0.39-0.12,0.47-0.35,0.47h-6.52C170.24,346.06,170.12,345.98,170.12,345.59z"/>
				<path class="st0" d="M197.8,344.89c-0.39-0.35-0.51-0.71-0.51-1.26v-6.2c0-0.27,0.2-0.47,0.47-0.47h0.27
					c0.27,0,0.47,0.12,0.55,0.39c1.26,5.34,4.04,7.81,7.46,7.81c2.79,0,4.4-2.24,4.4-4.59c0-6.79-12.84-9.62-12.84-16.8
					c0-3.93,2.94-6.71,7.7-6.71c2.63,0,5.3,0.79,6.32,1.65c0.39,0.35,0.51,0.71,0.51,1.26v4.83c0,0.27-0.2,0.47-0.47,0.47h-0.31
					c-0.27,0-0.47-0.12-0.55-0.39c-1.33-4.63-3.89-6.32-6.28-6.32c-1.77,0-3.22,1.57-3.22,3.81c0,6.12,12.52,8.44,12.52,16.73
					c0,4.4-2.63,7.58-8.36,7.58C202.35,346.65,198.58,345.59,197.8,344.89z"/>
				<path class="st0" d="M238.94,333.38c0,0.98,1.45,1.53,1.45,2.67c0,1.26-1.18,1.96-2.36,1.96c-1.53,0-2.28-1.06-2.28-2.24
					c0-2.79,4.16-5.77,6.67-5.77c3.1,0,5.14,4.83,6.63,4.83c0.82,0,1.37-0.9,1.92-3.53c0.04-0.28,0.24-0.43,0.51-0.43h0.35
					c0.31,0,0.47,0.2,0.43,0.51c-0.71,3.89-2.08,6.32-4.08,6.32c-1.57,0-2.79-1.26-3.93-2.59c-1.77,7.07-7.07,11.54-12.41,11.54
					c-4.79,0-8.52-3.81-8.6-9.58c-0.12-7.54,5.06-13.31,10.13-13.31c2.55,0,3.61,1.53,3.61,3.18c0,0.31,0,0.55-0.08,0.86
					c2.63-2.51,4.2-4.91,4.2-6.28c0-1.37-0.98-2.16-0.98-3.26c0-1.18,1.02-1.85,2.2-1.85c1.1,0,2.59,0.82,2.59,2.71
					c0,0.39-0.04,0.82-0.2,1.26c-1.3,4-9.03,11.23-17.98,15.63c0,0.43,0.04,0.94,0.08,1.41c0.35,4.36,3.3,7.11,6.48,7.11
					c4,0,8.64-3.81,10.01-10.56c-0.9-1.06-1.77-1.88-2.71-1.88C239.53,332.09,238.94,332.52,238.94,333.38z M232.9,331.14
					c0.51-0.98,0.82-2.12,0.82-3.26c0-1.85-0.47-2.87-1.53-2.87c-2.43,0-5.06,4.12-5.38,9.66
					C229.01,333.66,231.09,332.44,232.9,331.14z"/>
				<path class="st0" d="M259.47,342.88c0-1.3,0.86-2.55,2.12-2.55c3.06,0,1.41,4.36,3.57,4.36c1.18,0,1.81-1.1,1.81-4.16v-19.87
					c0-0.98-0.9-1.73-2.94-2c-0.31-0.04-0.47-0.16-0.47-0.51v-0.2c0-0.39,0.12-0.47,0.35-0.47c2.39,0,3.57,0.2,4.99,0.2
					c1.41,0,2.67-0.2,4.28-0.2c0.24,0,0.35,0.08,0.35,0.47v0.2c0,0.35-0.12,0.47-0.31,0.51c-1.34,0.2-2.32,0.98-2.32,2v17.9
					c0,4.32-2.51,8.09-7.03,8.09C260.73,346.65,259.47,344.45,259.47,342.88z"/>
				<path class="st0" d="M274.31,345.59v-0.2c0-0.35,0.16-0.47,0.47-0.55c1.26-0.24,2.16-0.98,2.16-1.96v-22.22
					c0-0.98-0.9-1.73-2.16-1.96c-0.31-0.08-0.47-0.2-0.47-0.55v-0.2c0-0.39,0.12-0.47,0.35-0.47c1.33,0,4.04,0.12,8.32,0.12
					c2.83,0,4.59-0.08,8.09-0.12c1.45,0,1.69,0.27,1.69,1.26v5.34c0,0.2-0.16,0.35-0.35,0.35h-0.31c-0.2,0-0.39-0.16-0.43-0.47
					c-0.71-3.93-2.59-4.99-7.42-4.99h-1.26c-1.14,0-2.12,0.67-2.12,1.69v9.97h4.44c1.81,0,3.14-0.98,3.34-3.26
					c0.04-0.24,0.16-0.35,0.51-0.35h0.2c0.39,0,0.47,0.12,0.47,0.35c0,1.45-0.12,2.47-0.12,3.97c0,1.57,0.12,2.43,0.12,4.04
					c0,0.24-0.08,0.35-0.47,0.35h-0.2c-0.35,0-0.47-0.16-0.51-0.51c-0.28-2.2-1.57-3.1-3.34-3.1h-4.44v10.76
					c0,1.02,0.98,1.69,2.12,1.69h1.73c4.83,0,6.71-1.06,7.42-4.99c0.04-0.31,0.24-0.47,0.43-0.47h0.31c0.2,0,0.35,0.16,0.35,0.35
					v5.34c0,0.98-0.24,1.26-1.69,1.26c-3.49-0.04-5.26-0.12-8.56-0.12c-4.28,0-6.99,0.12-8.32,0.12
					C274.43,346.06,274.31,345.98,274.31,345.59z"/>
				<path class="st0" d="M304.27,345.67l-7.11-25.01c-0.35-1.18-1.41-1.81-3.02-1.96c-0.2-0.04-0.31-0.16-0.31-0.51v-0.2
					c0-0.39,0.12-0.47,0.35-0.47c2,0,3.38,0.2,4.99,0.2c1.77,0,3.53-0.2,5.34-0.2c1.26,0,3.73,0.2,4.87,0.2
					c1.69,0,2.87-0.2,5.46-0.2c0.24,0,0.35,0.08,0.35,0.47v0.2c0,0.35-0.16,0.47-0.47,0.51c-2.16,0.28-3.06,0.94-2.75,2.16
					l4.79,18.02l4.79-17.79c0.39-1.41-0.35-2.16-2.59-2.43c-0.31-0.04-0.47-0.16-0.47-0.51v-0.2c0-0.39,0.12-0.47,0.35-0.47
					c1.81,0,3.18,0.2,4.04,0.2c0.94,0,2.04-0.2,3.42-0.2c0.24,0,0.35,0.08,0.35,0.47v0.2c0,0.35-0.12,0.47-0.31,0.51
					c-1.65,0.2-2.71,0.82-3.14,2.39l-6.83,24.62c-0.08,0.24-0.27,0.39-0.55,0.39h-0.43c-0.27,0-0.43-0.16-0.51-0.39l-4.48-14.96
					l-4.63,14.96c-0.08,0.24-0.24,0.39-0.51,0.39h-0.43C304.54,346.06,304.35,345.91,304.27,345.67z M306.27,339.19l3.38-10.99
					l-2.28-7.54c-0.35-1.14-1.37-1.96-2.94-1.96c-2.08,0-2.98,0.94-2.67,2.16L306.27,339.19z"/>
				<path class="st0" d="M327.24,345.59v-0.2c0-0.35,0.16-0.47,0.47-0.55c1.26-0.24,2.16-0.98,2.16-1.96v-22.22
					c0-0.98-0.9-1.73-2.16-1.96c-0.31-0.08-0.47-0.2-0.47-0.55v-0.2c0-0.39,0.12-0.47,0.35-0.47c1.33,0,4.04,0.12,8.32,0.12
					c2.83,0,4.59-0.08,8.09-0.12c1.45,0,1.69,0.27,1.69,1.26v5.34c0,0.2-0.16,0.35-0.35,0.35h-0.31c-0.2,0-0.39-0.16-0.43-0.47
					c-0.71-3.93-2.59-4.99-7.42-4.99h-1.26c-1.14,0-2.12,0.67-2.12,1.69v9.97h4.44c1.81,0,3.14-0.98,3.34-3.26
					c0.04-0.24,0.16-0.35,0.51-0.35h0.2c0.39,0,0.47,0.12,0.47,0.35c0,1.45-0.12,2.47-0.12,3.97c0,1.57,0.12,2.43,0.12,4.04
					c0,0.24-0.08,0.35-0.47,0.35h-0.2c-0.35,0-0.47-0.16-0.51-0.51c-0.28-2.2-1.57-3.1-3.34-3.1h-4.44v10.76
					c0,1.02,0.98,1.69,2.12,1.69h1.73c4.83,0,6.71-1.06,7.42-4.99c0.04-0.31,0.24-0.47,0.43-0.47h0.31c0.2,0,0.35,0.16,0.35,0.35
					v5.34c0,0.98-0.24,1.26-1.69,1.26c-3.49-0.04-5.26-0.12-8.56-0.12c-4.28,0-6.99,0.12-8.32,0.12
					C327.35,346.06,327.24,345.98,327.24,345.59z"/>
				<path class="st0" d="M347.34,345.59v-0.2c0-0.35,0.16-0.47,0.47-0.55c1.26-0.24,2.16-0.98,2.16-1.96v-22.22
					c0-0.98-0.9-1.73-2.16-1.96c-0.31-0.08-0.47-0.2-0.47-0.55v-0.2c0-0.39,0.12-0.47,0.35-0.47c1.61,0,2.79,0.2,4.2,0.2
					c1.41,0,2.67-0.2,4.28-0.2c0.24,0,0.35,0.08,0.35,0.47v0.2c0,0.35-0.12,0.47-0.31,0.51c-1.34,0.2-2.32,0.98-2.32,2v22.22
					c0,1.02,0.98,1.69,2.12,1.69h1.26c4.83,0,6.71-1.06,7.42-4.99c0.04-0.31,0.24-0.47,0.43-0.47h0.31c0.2,0,0.35,0.16,0.35,0.35
					v5.34c0,0.98-0.24,1.26-1.69,1.26c-3.49-0.04-5.26-0.12-8.09-0.12c-4.28,0-6.99,0.12-8.32,0.12
					C347.46,346.06,347.34,345.98,347.34,345.59z"/>
				<path class="st0" d="M367.48,344.89c-0.39-0.35-0.51-0.71-0.51-1.26v-6.2c0-0.27,0.2-0.47,0.47-0.47h0.27
					c0.28,0,0.47,0.12,0.55,0.39c1.26,5.34,4.04,7.81,7.46,7.81c2.79,0,4.4-2.24,4.4-4.59c0-6.79-12.84-9.62-12.84-16.8
					c0-3.93,2.94-6.71,7.69-6.71c2.63,0,5.3,0.79,6.32,1.65c0.39,0.35,0.51,0.71,0.51,1.26v4.83c0,0.27-0.2,0.47-0.47,0.47h-0.31
					c-0.27,0-0.47-0.12-0.55-0.39c-1.34-4.63-3.89-6.32-6.28-6.32c-1.77,0-3.22,1.57-3.22,3.81c0,6.12,12.52,8.44,12.52,16.73
					c0,4.4-2.63,7.58-8.36,7.58C372.03,346.65,368.26,345.59,367.48,344.89z"/>
			</g>
		</g>
	</g>
</g>
</svg>
