<?xml version="1.0" encoding="utf-8"?>
<!-- Generator: Adobe Illustrator 27.5.0, SVG Export Plug-In . SVG Version: 6.00 Build 0)  -->
<svg version="1.1" id="Layer_1" xmlns="http://www.w3.org/2000/svg" xmlns:xlink="http://www.w3.org/1999/xlink" x="0px" y="0px"
	 viewBox="0 0 512 512" style="enable-background:new 0 0 512 512;" xml:space="preserve">
<style type="text/css">
	.st0{fill:#221F1F;}
	.st1{fill-rule:evenodd;clip-rule:evenodd;fill:#221F1F;}
</style>
<g id="layer1" transform="translate(-384.28572,-428.81172)">
	<g id="g3235" transform="matrix(2.5445375,0,0,2.5445375,1157.1714,-1457.8678)">
		<path id="path3015" class="st0" d="M-135.81,866.52c2.65,0.26,5.3,0.53,7.94,0.82l5.84-14.41l5.55,15.74
			c2.85,0.36,5.69,0.73,8.53,1.12l-9.73-27.61l9.73-24.03h-8.24l-0.08,0.12l-5.26,12.98l-4.61-13.1h-8.14l8.4,23.84L-135.81,866.52z
			"/>
		<path id="path3019" class="st0" d="M-141.97,865.95v-47.8h-8.13v47.13C-147.39,865.49-144.67,865.72-141.97,865.95L-141.97,865.95
			z"/>
		<path id="path3023" class="st0" d="M-203.06,863.28c2.2,0,4.39,0.02,6.58,0.03v-17.56h9.77v-7.48h-9.77v-12.64h11.25v-7.49h-19.42
			v45.13C-204.12,863.29-203.59,863.28-203.06,863.28L-203.06,863.28z"/>
		<path id="path3035" class="st0" d="M-228.32,863.74c2.71-0.1,5.42-0.18,8.14-0.24v-37.85h7.6v-7.49h-23.34v7.49h7.6V863.74
			L-228.32,863.74z"/>
		<path id="path3039" class="st0" d="M-290.52,868.78V840.3l9.63,27.33c2.96-0.33,5.93-0.65,8.9-0.94v-48.53h-7.8v29.5l-10.39-29.5
			h-0.34h-7.8v51.65h0.05C-295.7,869.44-293.11,869.11-290.52,868.78L-290.52,868.78z"/>
		<path id="path3051" class="st0" d="M-243.76,825.64v-7.49h-19.42v40.23v7.49v0.01c6.44-0.56,12.91-1.02,19.41-1.4v-0.01v-2.16
			v-5.33c-3.75,0.22-7.5,0.47-11.24,0.75v-11.97h9.77v-7.48h-9.77v-12.63L-243.76,825.64L-243.76,825.64z"/>
		<path id="path3055" class="st0" d="M-169.11,856.62v-38.47h-8.17v38.12v7.49v0.01c6.5,0.24,12.97,0.57,19.42,0.99v-0.01v-2.42
			v-5.07C-161.6,857.02-165.35,856.81-169.11,856.62L-169.11,856.62z"/>
	</g>
</g>
<g>
	<g>
		<path class="st0" d="M192.47,156.39h-9.7v-2.42h9.7V156.39z M187.68,167.33h-2.9V154.7c0-1.13,0.25-2.09,0.74-2.89
			c0.49-0.8,1.21-1.41,2.16-1.84c0.95-0.43,2.1-0.65,3.47-0.65h1.32v2.15h-1.77c-1.15,0-1.98,0.21-2.5,0.63
			c-0.52,0.42-0.69,1.21-0.51,2.38v0.54V167.33z"/>
		<path class="st0" d="M201.33,167.59c-1.45,0-2.72-0.27-3.81-0.81c-1.09-0.54-1.94-1.33-2.54-2.36c-0.6-1.04-0.9-2.29-0.9-3.76
			c0-1.4,0.3-2.61,0.9-3.65c0.6-1.04,1.44-1.85,2.51-2.43c1.07-0.58,2.34-0.87,3.79-0.87c1.38,0,2.59,0.25,3.64,0.74
			c1.05,0.49,1.86,1.21,2.44,2.15s0.87,2.09,0.87,3.45c0,0.23-0.01,0.45-0.03,0.66c-0.02,0.21-0.04,0.41-0.08,0.6h-12.2v-1.61h10.29
			l-0.75,0.99c0.02-0.18,0.03-0.35,0.03-0.52c0-0.17,0-0.34,0-0.52c0-1.24-0.35-2.15-1.06-2.75c-0.71-0.6-1.78-0.9-3.21-0.9
			c-1.59,0-2.73,0.37-3.41,1.1c-0.68,0.73-1.02,1.79-1.02,3.17v0.7c0,1.4,0.34,2.46,1.02,3.2c0.68,0.73,1.83,1.1,3.44,1.1
			c1.4,0,2.4-0.22,3.02-0.66c0.62-0.44,0.93-1.05,0.93-1.84v-0.21h2.9v0.24c0,0.95-0.29,1.79-0.87,2.51
			c-0.58,0.73-1.38,1.29-2.39,1.69C203.82,167.39,202.66,167.59,201.33,167.59z"/>
		<path class="st0" d="M214.87,167.59c-1.38,0-2.48-0.31-3.29-0.93c-0.82-0.62-1.22-1.47-1.22-2.57c0-0.7,0.17-1.28,0.52-1.76
			c0.35-0.47,0.85-0.85,1.49-1.11s1.41-0.46,2.28-0.56l6.34-0.67v1.72l-5.51,0.62c-0.75,0.09-1.31,0.25-1.68,0.47
			c-0.37,0.22-0.55,0.6-0.55,1.12c0,0.54,0.19,0.94,0.58,1.2s0.99,0.39,1.81,0.39c1.02,0,1.91-0.13,2.66-0.39s1.34-0.67,1.77-1.22
			c0.43-0.55,0.64-1.27,0.64-2.15l0.38,0.05v2.2h-0.38c-0.36,1.13-1.04,2.01-2.05,2.65C217.66,167.28,216.39,167.59,214.87,167.59z
			 M223.57,167.33h-2.66v-3.44l-0.19-0.08v-4.57c0-1.11-0.26-1.88-0.79-2.32c-0.53-0.44-1.44-0.66-2.73-0.66
			c-1.24,0-2.16,0.21-2.77,0.64s-0.91,1.14-0.91,2.12v0.11h-2.87v-0.11c0-1.02,0.27-1.93,0.81-2.73c0.54-0.8,1.31-1.43,2.32-1.89
			c1.01-0.46,2.23-0.7,3.64-0.7c1.42,0,2.57,0.24,3.48,0.71c0.9,0.47,1.58,1.12,2.01,1.95c0.44,0.82,0.66,1.77,0.66,2.85V167.33z"/>
		<path class="st0" d="M235.45,156.39h-9.97v-2.42h9.97V156.39z M235.45,167.33h-3.06c-1.43,0-2.57-0.35-3.4-1.05
			s-1.25-1.85-1.25-3.46v-11.77h2.87v11.6c0,0.82,0.2,1.37,0.59,1.65c0.39,0.28,1,0.42,1.83,0.42h2.42V167.33z"/>
		<path class="st0" d="M243.37,167.59c-1.25,0-2.29-0.25-3.12-0.75c-0.82-0.5-1.44-1.17-1.85-2.01s-0.62-1.78-0.62-2.82v-8.03h2.87
			v7.25c0,1.24,0.31,2.17,0.93,2.81c0.62,0.64,1.63,0.95,3.05,0.95c1.49,0,2.57-0.37,3.26-1.12c0.69-0.74,1.03-1.84,1.03-3.29
			l0.51-0.03l0.16,2.63h-0.62c-0.12,0.75-0.41,1.46-0.86,2.12c-0.45,0.66-1.06,1.21-1.84,1.64
			C245.5,167.38,244.53,167.59,243.37,167.59z M251.83,167.33h-2.66v-4.19l-0.24-0.13v-9.03h2.9V167.33z"/>
		<path class="st0" d="M257.9,167.33H255v-13.35h2.66v3.79l0.24,0.13V167.33z M257.9,159.83h-0.64v-2.26h0.59
			c0.12-0.73,0.38-1.39,0.75-1.97c0.38-0.58,0.88-1.04,1.52-1.38s1.41-0.51,2.32-0.51c1.02,0,1.85,0.21,2.5,0.64s1.11,1,1.41,1.72
			c0.3,0.72,0.44,1.5,0.44,2.34v1.75h-2.87v-1.18c0-0.97-0.21-1.67-0.65-2.12c-0.43-0.45-1.15-0.67-2.15-0.67
			c-1.15,0-1.97,0.31-2.47,0.94C258.15,157.75,257.9,158.65,257.9,159.83z"/>
		<path class="st0" d="M275.87,167.59c-1.45,0-2.72-0.27-3.81-0.81c-1.09-0.54-1.94-1.33-2.54-2.36c-0.6-1.04-0.9-2.29-0.9-3.76
			c0-1.4,0.3-2.61,0.9-3.65c0.6-1.04,1.44-1.85,2.51-2.43c1.07-0.58,2.34-0.87,3.79-0.87c1.38,0,2.59,0.25,3.64,0.74
			c1.05,0.49,1.86,1.21,2.44,2.15s0.87,2.09,0.87,3.45c0,0.23-0.01,0.45-0.03,0.66c-0.02,0.21-0.04,0.41-0.08,0.6h-12.2v-1.61h10.29
			l-0.75,0.99c0.02-0.18,0.03-0.35,0.03-0.52c0-0.17,0-0.34,0-0.52c0-1.24-0.35-2.15-1.06-2.75c-0.71-0.6-1.78-0.9-3.21-0.9
			c-1.59,0-2.73,0.37-3.41,1.1c-0.68,0.73-1.02,1.79-1.02,3.17v0.7c0,1.4,0.34,2.46,1.02,3.2c0.68,0.73,1.83,1.1,3.44,1.1
			c1.4,0,2.4-0.22,3.02-0.66c0.62-0.44,0.93-1.05,0.93-1.84v-0.21h2.9v0.24c0,0.95-0.29,1.79-0.87,2.51
			c-0.58,0.73-1.38,1.29-2.39,1.69C278.37,167.39,277.2,167.59,275.87,167.59z"/>
		<path class="st0" d="M291.37,167.59c-1.41,0-2.61-0.29-3.59-0.87c-0.98-0.58-1.71-1.4-2.22-2.44c-0.5-1.05-0.75-2.25-0.75-3.61
			c0-1.4,0.25-2.61,0.75-3.65c0.5-1.04,1.23-1.85,2.18-2.43s2.09-0.87,3.44-0.87c1.58,0,2.82,0.37,3.73,1.1s1.5,1.67,1.77,2.79h0.67
			v2.98h-0.51c0-1.42-0.4-2.48-1.21-3.18c-0.81-0.71-1.95-1.06-3.44-1.06c-0.91,0-1.71,0.14-2.39,0.42
			c-0.68,0.28-1.2,0.73-1.54,1.36c-0.35,0.63-0.52,1.48-0.52,2.55c0,1.06,0.17,1.9,0.52,2.53c0.35,0.63,0.86,1.07,1.54,1.34
			s1.5,0.4,2.44,0.4s1.77-0.15,2.46-0.44s1.22-0.76,1.58-1.38c0.37-0.63,0.55-1.4,0.55-2.31h0.51l0.19,2.69h-0.64
			c-0.27,1.33-0.88,2.34-1.84,3.05C294.11,167.24,292.88,167.59,291.37,167.59z M299.75,167.33h-2.66v-4.19l-0.24-0.35v-13.46h2.9
			V167.33z"/>
		<path class="st0" d="M311.01,152.42h-2.9v-3.09h2.9V152.42z M311.01,167.33h-2.9v-13.35h2.9V167.33z"/>
		<path class="st0" d="M317.13,167.33h-2.9v-13.35h2.66v4.19l0.24,0.13V167.33z M328.17,167.33h-2.9v-7.25c0-1.25-0.3-2.19-0.9-2.82
			s-1.6-0.94-3-0.94c-1.45,0-2.52,0.37-3.21,1.12s-1.03,1.84-1.03,3.29l-0.51,0.03l-0.13-2.63h0.59c0.14-0.75,0.43-1.46,0.87-2.14
			c0.44-0.67,1.05-1.22,1.83-1.64c0.78-0.42,1.73-0.63,2.86-0.63c1.24,0,2.27,0.25,3.09,0.75c0.82,0.5,1.44,1.17,1.84,2.01
			c0.4,0.84,0.6,1.78,0.6,2.82V167.33z"/>
	</g>
</g>
</svg>
