<?xml version="1.0" encoding="utf-8"?>
<!-- Generator: Adobe Illustrator 27.5.0, SVG Export Plug-In . SVG Version: 6.00 Build 0)  -->
<svg version="1.1" id="Layer_1" xmlns="http://www.w3.org/2000/svg" xmlns:xlink="http://www.w3.org/1999/xlink" x="0px" y="0px"
	 viewBox="0 0 512 512" style="enable-background:new 0 0 512 512;" xml:space="preserve">
<style type="text/css">
	.st0{fill:#221F1F;}
	.st1{fill-rule:evenodd;clip-rule:evenodd;fill:#221F1F;}
</style>
<g>
	<path class="st1" d="M112.47,247.31c-3.35-2.17-13.35-4.44-18.01-5.49c-5.44-1.23-14.9-1.92-20.61-1.54
		c-46.52,3.06-74.7,64.49-50.99,75.37c10.96,5.02,52.97-1.71,57.56-8.63c-14.06,3.65-34.53,4.66-44.1,0.56
		c-15.16-6.49-1.92-23.71,2.68-29.57c13.72-17.49,35.34-30.44,62.55-31.12C106.11,246.77,109.94,247.45,112.47,247.31z"/>
	<path class="st1" d="M65.43,270.92c0.14,3.67,4.2,12.02,6.1,15.92c2.21,4.55,7.29,11.56,11.04,15.31
		c30.49,30.53,99.81,12.44,94.88-10.75c-2.27-10.72-33.2-35.87-41.86-34.81c11.55,7.55,24.67,21.19,26.91,30.39
		c3.55,14.56-19.09,15.9-26.84,16.29c-23.14,1.18-47.15-5.94-64.05-24.48C68.78,275.69,67.07,272.6,65.43,270.92z"/>
	<path class="st1" d="M115.3,284.25c3.03-2.04,7.88-9.72,10.16-13.31c2.64-4.18,5.78-12.01,6.88-17.05
		c9.01-40.98-44.93-88.57-61.93-72.45c-7.86,7.45-12.03,45.98-6.32,52.55c0-13.43,4.3-31.32,10.88-37.94
		c10.4-10.48,24.15,7.44,28.78,13.6c13.87,18.42,21.18,41.87,14.81,65.43C117.49,279.01,115.81,282.03,115.3,284.25z"/>
	<g>
		<path class="st1" d="M357,214.85c0,21.32,12.28,34.95,33.5,34.95c0.38,4.56,3.99,10.1,7.05,13.06c3.27,3.17,8.72,5.61,14.96,5.61
			c5.52,0,12.56-4.69,15.32-7.24c1.17-1.09,0.83,0.39,0.89-1.46c0.07-2.02-1.8-1.2-3.17-0.83c-8.55,2.36-20.52,1.79-25.7-4.62
			c-1.17-1.43-2.48-2.92-2.65-5.01c9.01-2.1,15.17-4.03,21.14-11.42c8.08-10,10.19-26.6,5.74-38.91
			C412.75,167.67,357,173.27,357,214.85L357,214.85z M391.9,181.77c6.74,0,14.24,3.1,18.63,8.85c4.32,5.66,5.58,13.9,5.58,22.48
			c0,8.79-1.17,18.59-5.68,24.28c-4.36,5.52-11.97,7.05-18.55,7.05c-5.96,0-12.11-1.85-16.34-6.48c-5.26-5.74-7.88-15.27-7.88-24.86
			c0-8.7,1.34-18.2,5.77-23.87C377.83,183.61,385.25,181.77,391.9,181.77z"/>
		<path class="st1" d="M427.84,245.96c0.43,0.87,0.37,0.6,0.47,1.92h20.59v-2.39c-1.59-0.04-6.23-1.23-6.23-2.39
			c0-3.3,6.15-15.65,7.17-20.1h22.98c3.36,14.45,10.43,20.07,2.86,22.01c-2.52,0.64-2.8,0.05-2.86,2.88h24.9
			c-0.37-4.4-3.63-1.58-7.28-4.69c-1.55-1.31-2.93-6.31-3.8-8.64l-20.03-54.64c-6.83,1.59-4.19-0.7-10.81,15.04
			c-4.28,10.19-15.36,38.23-19.33,46.26C434.51,245.21,431.24,244.33,427.84,245.96L427.84,245.96z M471.8,217.72l-20.14-0.33
			l10.56-26.2L471.8,217.72z"/>
		<path class="st1" d="M381.9,278.98c1.93,0.45,3.81,0.99,5.74,1.43v31.11c-1.93,0.45-3.56,1.25-5.74,1.43v1.92h19.14v-1.92
			c-1.87-0.04-3.97-0.81-5.27-1.43c0-3.34-0.47-4.68-0.47-8.13v-20.1c0-4.05,18.18-7.65,18.18,4.78v22.49
			c0,1.71-3.51,2.35-5.27,2.39v1.92h18.67c-0.34-4.06-4.07-0.83-5.45-4.13c-1.35-3.23,1.02-20.72-0.78-28.43
			c1.52-0.41,2.39-1.34,3.88-1.87c7.29-2.61,14.79-0.74,14.79,9.52v19.63c0,1.96-0.34,2.05-1.68,2.63c-1.02,0.45-2.33,0.7-3.59,0.72
			v1.92h19.14c-0.26-3.18-2.23-1.67-5.74-3.35c-3.15-13.56,5.61-36.85-11.48-36.85c-8.37,0-9.06,0.76-15.79,5.27
			c-2.51-2.94-2.02-5.27-13.4-5.27c-4.74,0-8.45,2.81-11.48,4.31v-4.31c-2.39,0.05-7.3,1.55-10.76,2.15
			C382.29,277.22,382.1,276.65,381.9,278.98z"/>
		<path class="st1" d="M189.01,269.89c0,21.65,29.68,15.06,29.68,32.54c0,9.87-11.8,11.32-19.81,9.28
			c-2.68-0.68-2.84-0.47-3.48-3.22l-1.85-8.2c-0.55-1.66,0.05-1.23-1.66-1.69c-1.39,1.33-0.79,0.75-1.12,3.19
			c-0.12,0.85-0.37,2.88-0.58,4.2c-0.39,2.44-1.12,5.65-1.17,7.92c2.96,0.07,7.15,1.92,11.48,1.92c8.71,0,13.85,0.79,20.65-4.72
			c7.15-5.77,7.4-17.18,1.26-22.95c-5.83-5.49-18.76-8.01-23.1-13.76c-5.32-7.04-1.29-16.97,9.8-16.97c3.32,0,5.85,1.21,8.62,1.43
			c0.29,3.43,2.1,7.09,2.39,10.54h1.92c0.17-2.05,0.99-4.95,1.3-6.83c0.42-2.44,1.09-4.68,1.09-7.04c-3.72,0-5.96-0.96-10.05-0.96
			h-7.66C197.42,254.57,189.01,260.62,189.01,269.89z"/>
		<path class="st1" d="M340.74,295.73c0,11.71,7.57,20.1,17.24,20.1c7.02,0,9.45,0.34,15.83-2.84c1.58-0.79,1.83-0.6,1.88-2.92
			c-4.47,0-20.85,4.64-25.51-8.47c-0.58-1.63-1.25-5.87-1.29-7.8h27.29v-3.82c0-8.39-5.57-15.32-13.89-15.32h-3.35
			C347.53,274.68,340.74,284.23,340.74,295.73L340.74,295.73z M368,290.6h-18.85c-0.03-0.64-0.01-1.3,0.04-1.97
			c0.58-6.42,5.79-11.72,11.01-11.4c5.22,0.3,8.47,6.1,7.9,12.52C368.08,290.03,368.04,290.32,368,290.6z"/>
		<path class="st1" d="M193.31,201.45v2.88c-2.75,0-3.64,0.47-6.7,0.47v2.39c2.18,0.18,4.7,0.97,6.7,1.43l0.01,30.16
			c0.03,2.38,0.32,4.44-1.62,5.56c-3.05,1.75-4.99-0.55-5.08,3.52h22.98v-1.92c-0.74-0.17-6.2-1.79-6.53-2.09
			c-0.97-0.91-0.66-1.69-0.88-3.43c-0.54-4.07-0.25-24.91-0.25-30.39c0-2.5,5.07-1.43,11.97-1.43v-4.28
			c-15.86,0-11.6,1.17-11.48-8.13c0.07-4.86,1.5-11.96,5.45-14.65c2.52-1.72,4.45-1.63,8.43-1.63c0.45,1.93,1.1,3.46,1.73,5.44
			c1.35,4.28,0.32,4.07,3.05,4.13c0.68-1.43,0.3-1.38,0.7-3.14c0.26-1.17,0.55-1.79,0.96-2.9c2.19-5.91,1.6-7.15-2.57-7.37h-7.21
			C200.2,176.08,193.31,189.71,193.31,201.45z"/>
		<path class="st1" d="M306.28,237.34c0,6.61-4.73,7.66-11.01,7.66c-6.12,0-5.75-1.71-7.7-8.09c-0.7-2.27-0.25-2.86-2.82-2.92
			l-2.88,12.44c2.05,0.17,4.72,1.35,6.82,1.8c12.47,2.64,26.21-0.84,26.21-12.34c0-7.72-3-10.43-11.43-13.47
			c-6.37-2.29-13.47-3.19-13.47-9.51c0-8.04,12.23-6.04,15.79-5.74c0.42,1.83,1,3.19,1.62,5.08c1.41,4.34,0.74,3.95,3.17,4.01
			c0.35-0.75,2.36-10.67,2.39-11.97c-8.29-1.93-21.15-4.39-27.58,3.53c-1.54,1.89-2.3,3.35-2.82,6.31
			c-1.51,8.61,5.41,12.73,12.63,15.11c1.98,0.66,5.19,1.51,7.11,2.47C304.15,232.66,306.28,234.84,306.28,237.34z"/>
		<path class="st1" d="M233.04,335.46c0.42,0.24,1.1,0.39,1.93,0.47h8.12c4.01,0,5.03-2.04,5.71-5.29c0.67-3.18,1.33-5.66,2.13-8.88
			c2.12-8.49,5.27-17.08,8.42-25.08l6.75-15.74c2.12-5.22,5.82-1.12,6.17-5.31h-14.83v1.43l4.77,1.51
			c-0.13,1.83-1.37,4.53-2.09,6.42c-1.27,3.32-7.27,17.6-7.45,19.82h-0.96c-0.17-2.12-1.41-4.48-2.19-6.42
			c-1.35-3.38-7.17-17.39-7.38-19.9c4.9-1.14,4.62-0.99,4.78-2.88h-18.67c0.37,4.36,3.67-0.08,6.08,5.41l10.51,25.39
			c4.36,9.72,4.13,7.65-0.32,16.59c-4.61,9.26-4.55,8.13-10.04,10.55C232.39,334.49,233.27,333.39,233.04,335.46z"/>
		<path class="st1" d="M326.85,204.32c-3.09,0-4.31,0.47-7.66,0.47c0.05,2.61,0.38,2.17,2.52,2.73c1.56,0.42,2.69,0.75,4.18,1.09
			c0,4.99-0.74,31.6,0.79,35.1c3.7,8.54,17.74,4.66,22.74,1.79c1.23-0.71,1.67-0.21,1.29-1.87c-0.54-2.35-2.79-0.09-9.5-0.09
			c-3.6,0-6.23-2.5-6.23-6.23v-27.26c0-1.1,0.33-1.43,1.43-1.43h12.93v-4.31h-12.93c-3.28,0-0.3-9.76-1.04-11.89
			c-0.59-1.68-0.93-1.05-2.34-0.7c-0.71,0.18-2.47,0.71-2.88,1.05C329.33,193.47,326.89,202.39,326.85,204.32z"/>
		<path class="st1" d="M244.05,205.76c0.24,2.88,4.19,3.14,6.7,3.35l-0.01,33.49c-0.37,2.15-1.46,1.84-3.39,2.35
			c-0.14,0.04-2.17,0.68-2.18,0.68c-1.45,0.84-0.89-0.16-1.12,1.76c1.92,1.08,19.88,0.47,23.45,0.47v-1.92
			c-1.43-0.33-2.15-0.63-3.73-1.05c-4.31-1.13-2.88-0.71-3.44-1.81l-0.47-32.07c1.98-0.53,8.07-4.93,10.68,1.29
			c0.7,1.66,1.6,3.57,1.76,5.43h2.39l2.22-12.19c0.43-1.97,1.01-3.13-0.79-3.13c-6.16,0-12.55,3.24-16.28,5.74
			c0-6.83,0.8-6.19-5.53-4.57L244.05,205.76z"/>
		<path class="st1" d="M458.48,284.25c0,7.09,0.54,10.25,9.76,13.69c4.69,1.75,11.3,2.13,11.3,8.33c0,6.21-7.19,6.23-11.01,6.23
			c-3.36,0-3.94-0.88-4.74-3.39c-0.6-1.9-1.79-4.7-1.96-6.66h-1.92c0,2.26-1.69,9.54-2.39,11.01c1.41,0.33,3.07,1.04,4.72,1.5
			c4.36,1.22,7.41,0.89,12.03,0.89c11.36,0,21.16-17.35,2.81-23.4c-5.56-1.83-12.39-3.18-12.39-8.67c0-7.79,12.85-5.29,14.36-5.27
			c0.21,2.56,1.79,5.54,2.39,8.13h1.92c0.28-3.35,1.84-7.15,1.92-10.54c-5.07-2.43-17.55-2.1-22.31,1.16
			C461.24,278.46,458.48,280.1,458.48,284.25z"/>
		<path class="st1" d="M275.15,285.21c0,6.9,1.85,9.76,9.51,12.51c5.33,1.92,11.55,2.14,11.55,9.03c0,7.32-12.24,5.93-13.81,5.19
			c-1.87-0.88-3.46-7.55-3.9-9.5c-2.64,0.22-1.92,1.76-2.51,4.66c-0.37,1.81-1.27,4.15-1.31,6.33c5.39,2.59,10.04,2.39,15.79,2.39
			c5.62,0,13.4-4.47,13.4-11.48c0-9.13-6.31-10.83-15.74-13.94c-9.96-3.27-9.21-12.39,3.3-12.39c2.4,0,2.14,0.43,4.31,0.47
			c0.6,2.59,2.18,5.57,2.39,8.13h1.92c0.62-2.63,1.45-8.57,2.39-10.54c-6.88-1.6-16.84-3.03-22.93,1.48
			C277.36,279.21,275.15,281.55,275.15,285.21z"/>
		<path class="st1" d="M317.27,265.58l-2.88,10.54c-2.75,0-3.64,0.47-6.7,0.47c0.21,2.52,2.98,2.88,6.23,2.88
			c0,8.54-1.54,28.19,0.92,32.58c0.71,1.27,1.1,1.58,2.34,2.46c5.71,4.05,16.51-1.48,18.76-2.01v-1.92
			c-15.66,0-14.36,5.5-14.36-24.41c0-2.92,0.47-3.49,0.47-6.23h12.44v-3.82h-12.44v-11.5C320.16,264.78,319.18,265.43,317.27,265.58
			z"/>
		<path class="st1" d="M216.77,205.76v1.92c1.97,0.17,4.34,1,6.23,1.43c0.12,1.5,0.47,1.69,0.47,3.35v29.19
			c0,5.48-6.58,0.92-6.7,6.23h22.49v-1.92c-2.22-0.51-4.48-1.39-6.7-1.92c0-2.73-0.47-3.31-0.47-6.23v-18.66
			c0-6.2,0.47-10.6,0.47-16.75L216.77,205.76z"/>
		<path class="st1" d="M226.34,200.01c7.67,0,8.97-11.01,0-11.01c-3.36,0-4.61,2.34-4.91,5.66c-0.13,1.45-0.16,2.21,0.96,3.52
			C223.16,199.07,224.82,200.01,226.34,200.01z"/>
	</g>
</g>
</svg>
